<!--?xml version="1.0" encoding="utf-8"?-->
<!-- Generator: Adobe Illustrator 18.1.1, SVG Export Plug-In . SVG Version: 6.00 Build 0)  -->

<svg version="1.1" id="_x32_" xmlns="http://www.w3.org/2000/svg" xmlns:xlink="http://www.w3.org/1999/xlink" x="0px" y="0px" viewBox="0 0 512 512" style="width: 256px; height: 256px; opacity: 1;" xml:space="preserve">
<style type="text/css">
	.st0{fill:#333;}
</style>
<g>
	<path class="st0" d="M469.672,213.675H145.324L275.68,84.727c16.623-16.438,16.767-43.253,0.329-59.866
		c-16.438-16.624-43.243-16.767-59.867-0.328L12.566,225.901C4.52,233.863,0,244.691,0,256.003c0,11.312,4.52,22.13,12.566,30.093
		l203.576,201.368c16.624,16.438,43.428,16.304,59.867-0.33c16.438-16.613,16.294-43.417-0.329-59.855L145.324,298.322h324.347
		c23.374,0,42.328-18.945,42.328-42.319C512,232.62,493.045,213.675,469.672,213.675z" style="fill: rgb(0, 90, 156);"></path>
</g>
</svg>
