<!--?xml version="1.0" encoding="utf-8"?-->
<!-- Generator: Adobe Illustrator 18.1.1, SVG Export Plug-In . SVG Version: 6.00 Build 0)  -->

<svg version="1.1" id="_x32_" xmlns="http://www.w3.org/2000/svg" xmlns:xlink="http://www.w3.org/1999/xlink" x="0px" y="0px" viewBox="0 0 512 512" style="width: 256px; height: 256px; opacity: 1;" xml:space="preserve">
<style type="text/css">
	.st0{fill:#4B4B4B;}
</style>
<g>
	<path class="st0" d="M332.998,291.918c52.2-71.895,45.941-173.338-18.834-238.123c-71.736-71.728-188.468-71.728-260.195,0
		c-71.746,71.745-71.746,188.458,0,260.204c64.775,64.775,166.218,71.034,238.104,18.844l14.222,14.203l40.916-40.916
		L332.998,291.918z M278.488,278.333c-52.144,52.134-136.699,52.144-188.852,0c-52.152-52.153-52.152-136.717,0-188.861
		c52.154-52.144,136.708-52.144,188.852,0C330.64,141.616,330.64,226.18,278.488,278.333z" style="fill: rgb(57, 57, 57);"></path>
	<path class="st0" d="M109.303,119.216c-27.078,34.788-29.324,82.646-6.756,119.614c2.142,3.489,6.709,4.603,10.208,2.46
		c3.49-2.142,4.594-6.709,2.462-10.198v0.008c-19.387-31.7-17.45-72.962,5.782-102.771c2.526-3.228,1.946-7.898-1.292-10.405
		C116.48,115.399,111.811,115.979,109.303,119.216z" style="fill: rgb(57, 57, 57);"></path>
	<path class="st0" d="M501.499,438.591L363.341,315.178l-47.98,47.98l123.403,138.168c12.548,16.234,35.144,13.848,55.447-6.456
		C514.505,474.576,517.743,451.138,501.499,438.591z" style="fill: rgb(57, 57, 57);"></path>
</g>
</svg>
