<!--?xml version="1.0" encoding="utf-8"?-->
<!-- Generator: Adobe Illustrator 18.0.0, SVG Export Plug-In . SVG Version: 6.00 Build 0)  -->

<svg version="1.1" id="_x32_" xmlns="http://www.w3.org/2000/svg" xmlns:xlink="http://www.w3.org/1999/xlink" x="0px" y="0px" viewBox="0 0 512 512" style="width: 256px; height: 256px; opacity: 1;" xml:space="preserve">
<style type="text/css">
	.st0{fill:#4B4B4B;}
</style>
<g>
	<path class="st0" d="M77.869,448.93c0,13.312,1.623,25.652,5.275,35.961c4.951,13.636,13.475,23.457,26.299,26.297
		c2.598,0.488,5.277,0.812,8.117,0.812h277.364c0.73,0,1.381,0,1.947-0.082c26.463-1.703,37.258-29.219,37.258-62.988
		l11.121-269.324H66.748L77.869,448.93z M331.529,239.672h52.68v212.262h-52.68V239.672z M229.658,239.672h52.682v212.262h-52.682
		V239.672z M127.789,239.672h52.762v212.262h-52.762V239.672z" style="fill: rgb(57, 57, 57);"></path>
	<path class="st0" d="M368.666,89.289c0.078-2.028,0.242-4.059,0.242-6.09v-5.598c0-42.777-34.822-77.602-77.6-77.602h-70.701
		c-42.778,0-77.6,34.824-77.6,77.602v5.598c0,2.031,0.162,4.062,0.326,6.09H28.721v62.582h454.558V89.289H368.666z M320.205,83.199
		c0,2.113-0.242,4.141-0.648,6.09H192.361c-0.406-1.949-0.65-3.977-0.65-6.09v-5.598c0-15.91,12.986-28.898,28.897-28.898h70.701
		c15.99,0,28.896,12.988,28.896,28.898V83.199z" style="fill: rgb(57, 57, 57);"></path>
</g>
</svg>
